<?xml version="1.0" standalone="no"?>
<!DOCTYPE svg PUBLIC "-//W3C//DTD SVG 20010904//EN"
 "http://www.w3.org/TR/2001/REC-SVG-20010904/DTD/svg10.dtd">
<svg version="1.0" xmlns="http://www.w3.org/2000/svg"
 width="1920.000000pt" height="1920.000000pt" viewBox="0 0 1920.000000 1920.000000"
 preserveAspectRatio="xMidYMid meet">

<g transform="translate(0.000000,1920.000000) scale(0.100000,-0.100000)"
fill="#000000" stroke="none">
<path d="M10168 18221 c-26 -21 -74 -107 -103 -183 -12 -32 -29 -54 -54 -71
-59 -39 -125 -147 -165 -267 -38 -113 -59 -225 -76 -389 -11 -113 -20 -143
-20 -66 0 75 -28 251 -56 350 -39 141 -84 224 -154 288 -33 29 -60 57 -60 61
0 4 -12 38 -27 74 -53 135 -105 182 -160 146 -65 -41 -72 -63 -152 -458 -89
-436 -79 -398 -101 -386 -12 7 -21 6 -28 -3 -14 -17 -43 -409 -57 -767 -24
-603 -28 -645 -111 -1145 -218 -1309 -439 -2409 -685 -3404 -39 -157 -91 -356
-116 -441 -402 -1384 -605 -2154 -808 -3065 -54 -242 -153 -602 -215 -780
-130 -374 -239 -582 -383 -731 l-49 -52 -57 22 c-31 13 -93 32 -138 45 -133
36 -169 17 -279 -144 -30 -44 -67 -112 -83 -150 l-28 -70 -102 -7 c-171 -13
-288 -64 -355 -157 -44 -61 -66 -121 -73 -196 l-6 -62 -88 -7 c-183 -14 -305
-77 -393 -205 -26 -37 -28 -38 -104 -44 -162 -13 -256 -72 -297 -187 -20 -54
-21 -55 -68 -62 -122 -17 -161 -106 -125 -283 l11 -58 -39 -31 c-113 -88 -161
-169 -151 -256 7 -62 24 -93 83 -160 l48 -53 -52 -48 c-312 -287 -728 -606
-1199 -921 -90 -60 -163 -113 -163 -119 0 -23 22 -49 42 -49 32 0 398 246 697
468 159 118 384 299 525 422 88 76 117 97 112 79 -33 -116 -38 -162 -26 -216
15 -68 65 -122 140 -150 l52 -20 -1 -110 c-2 -90 2 -120 19 -165 23 -63 80
-122 127 -132 30 -7 30 -7 36 -97 11 -168 66 -246 225 -315 2 -1 8 -32 14 -69
23 -151 96 -246 213 -280 l51 -15 24 -81 c26 -93 80 -182 134 -222 42 -33 132
-67 174 -67 21 0 32 -8 46 -32 11 -18 32 -49 47 -69 l29 -37 -73 -78 c-40 -44
-252 -281 -472 -529 -433 -488 -677 -744 -823 -862 -93 -76 -109 -102 -80
-131 29 -29 63 -13 183 91 149 129 363 354 770 812 176 198 375 422 443 497
l123 136 57 -26 c52 -25 68 -27 182 -28 106 0 131 -4 165 -21 69 -36 153 -56
216 -51 71 5 125 40 169 108 25 39 38 49 68 54 167 30 251 119 269 289 l6 57
61 0 c151 0 270 38 350 111 79 72 98 124 104 275 l4 122 71 7 c91 9 175 35
234 73 113 73 232 233 289 388 24 67 30 74 67 89 22 9 68 44 102 78 73 74 109
159 125 294 5 47 11 87 12 88 2 1 62 35 133 75 643 358 1046 845 1200 1450 54
211 55 225 65 910 6 355 12 690 14 745 2 55 1 -210 -1 -590 -5 -740 -1 -805
47 -995 162 -637 548 -1119 1190 -1488 l105 -60 8 -79 c18 -188 86 -312 210
-383 46 -26 51 -33 91 -132 111 -273 274 -417 495 -436 l74 -7 -2 -105 c-2
-120 14 -190 60 -257 66 -96 192 -151 354 -154 93 -2 91 -1 98 -77 9 -90 53
-180 110 -222 42 -31 121 -60 164 -60 15 0 28 -10 38 -30 25 -48 75 -100 118
-122 57 -29 159 -22 247 17 61 27 72 29 180 26 98 -2 125 1 175 19 33 12 67
22 75 23 18 2 99 -90 525 -593 383 -452 487 -572 640 -729 225 -232 305 -287
335 -231 16 30 5 50 -52 95 -137 107 -366 357 -813 885 -137 162 -316 373
-399 469 -106 124 -147 177 -140 186 5 8 26 38 47 69 31 45 43 56 66 56 46 0
125 28 169 60 59 42 107 113 138 200 35 102 35 102 82 115 130 39 206 138 229
302 5 38 9 43 52 59 63 24 143 106 165 169 10 28 20 87 23 131 l6 82 38 11
c52 16 93 53 121 109 19 39 24 69 28 171 l5 124 42 12 c124 37 179 141 149
283 -8 37 -18 76 -22 87 -5 12 16 -1 52 -33 370 -331 638 -546 979 -789 283
-201 295 -207 317 -158 14 32 20 27 -157 150 -417 292 -795 593 -1097 876
l-127 119 48 48 c89 89 113 185 70 277 -12 26 -51 72 -91 110 l-70 65 12 67
c18 93 16 177 -4 209 -23 34 -72 62 -122 70 -41 6 -43 8 -64 65 -44 121 -132
180 -280 187 l-87 4 -19 36 c-32 61 -114 136 -184 169 -64 31 -129 46 -242 58
l-58 6 0 42 c0 23 -6 65 -14 92 -48 180 -185 275 -420 292 -88 6 -89 6 -100
37 -43 123 -165 315 -217 342 -51 26 -152 13 -292 -38 l-58 -21 -25 24 c-44
42 -130 161 -176 245 -154 279 -296 744 -428 1399 -122 604 -246 1148 -415
1830 -99 397 -138 549 -284 1100 -64 238 -139 565 -216 942 -25 120 -47 225
-50 233 -9 30 -137 724 -190 1025 -128 735 -306 1914 -335 2230 -5 61 -14 331
-20 600 -11 529 -24 791 -42 812 -8 10 -14 11 -25 2 -7 -7 -15 -10 -17 -8 -2
2 -18 85 -35 184 -71 400 -103 568 -111 590 -5 12 -23 39 -40 59 -37 42 -73
47 -112 17z m-134 -463 c3 -18 15 -127 26 -243 11 -115 30 -272 42 -347 l21
-137 -59 -67 c-57 -64 -152 -184 -185 -234 -9 -14 -21 -21 -25 -17 -5 5 -9
156 -9 335 1 301 3 335 23 431 26 116 60 204 104 268 35 52 55 55 62 11z
m-484 -67 c40 -57 82 -161 103 -258 20 -89 22 -126 22 -403 -1 -287 -7 -400
-23 -400 -4 1 -31 35 -60 78 -28 42 -86 118 -127 167 -63 75 -74 94 -69 115
22 90 38 193 69 433 19 149 35 278 35 285 0 22 28 13 50 -17z m689 -1086 c-2
-367 -2 -368 92 -420 30 -16 81 -57 115 -91 56 -55 62 -64 67 -115 4 -30 23
-200 42 -379 20 -179 47 -373 60 -431 36 -160 56 -317 61 -489 4 -95 11 -169
20 -192 30 -82 74 -331 164 -943 54 -362 54 -365 130 -695 27 -118 83 -361
124 -540 41 -179 100 -433 131 -565 73 -312 263 -1084 309 -1250 44 -159 44
-165 8 -165 -54 0 -135 -31 -169 -65 -28 -28 -33 -40 -33 -79 0 -26 7 -63 15
-83 8 -20 14 -37 13 -38 -2 -1 -20 -11 -40 -24 -51 -30 -95 -84 -107 -128 -10
-35 -7 -61 14 -130 5 -17 -2 -29 -35 -59 -52 -48 -70 -82 -70 -137 0 -30 8
-56 29 -89 l29 -46 -26 -37 c-40 -56 -43 -144 -7 -217 l27 -56 -20 -28 c-37
-51 -33 -116 11 -181 l33 -49 -23 -44 c-40 -76 -28 -160 36 -232 30 -35 30
-36 19 -91 -20 -95 16 -169 108 -223 37 -22 43 -30 38 -48 -29 -88 -21 -140
27 -180 16 -14 45 -28 64 -32 l35 -6 0 -61 c0 -84 28 -139 84 -166 23 -12 52
-21 63 -21 16 0 23 -10 31 -43 6 -24 22 -58 34 -77 26 -40 98 -80 142 -80 23
0 40 -12 83 -59 33 -37 67 -64 89 -71 49 -16 112 -5 167 30 40 25 46 27 52 12
4 -9 18 -48 32 -87 56 -155 176 -369 287 -510 l47 -60 -6 -85 c-20 -268 -86
-500 -220 -775 -226 -464 -613 -913 -1025 -1189 -88 -59 -285 -161 -331 -172
-50 -11 -375 170 -559 311 -352 270 -616 667 -724 1091 -60 233 -71 335 -69
644 0 157 8 501 17 765 9 264 21 629 26 810 61 1969 60 1956 81 2004 24 55 24
84 -1 157 -20 57 -20 64 -6 219 24 252 39 546 51 955 8 306 15 463 21 485 3
11 26 64 51 118 l45 99 -60 122 c-33 68 -63 137 -67 154 -6 29 8 653 20 892 5
102 7 109 60 220 30 64 55 127 55 141 0 14 -12 48 -27 75 -73 135 -68 109 -68
339 0 400 70 638 238 814 45 46 145 121 162 121 3 0 5 -91 6 -202 0 -112 4
-249 8 -304 7 -94 10 -105 40 -142 48 -61 98 -163 110 -223 5 -30 17 -167 26
-304 8 -138 22 -282 29 -320 8 -39 31 -234 51 -435 43 -434 73 -654 126 -930
96 -495 227 -906 395 -1244 44 -89 54 -118 54 -160 0 -33 7 -62 20 -84 11 -18
20 -45 20 -61 0 -60 72 -105 108 -69 20 20 14 86 -12 131 -13 23 -27 58 -30
77 -3 20 -23 65 -44 100 -424 734 -648 2084 -650 3912 l-1 418 -27 51 c-54 98
-120 126 -167 70 -13 -16 -35 -55 -48 -86 -21 -51 -28 -58 -84 -85 -116 -55
-236 -191 -324 -367 -17 -35 -34 -63 -38 -63 -3 0 -4 57 -1 128 5 107 10 142
37 222 18 52 52 131 75 175 l44 80 -36 40 c-19 22 -50 73 -70 114 l-35 73 -1
322 c-1 222 3 346 12 401 31 187 87 330 164 419 45 52 154 129 170 120 5 -3 8
-137 7 -319z m-897 224 c140 -90 230 -270 258 -519 13 -112 13 -376 -1 -574
-9 -140 -13 -166 -38 -220 -16 -34 -47 -82 -70 -108 l-42 -47 35 -63 c77 -139
131 -379 110 -493 l-9 -50 -32 67 c-82 174 -204 318 -321 377 -34 17 -62 37
-62 44 0 21 -47 114 -69 136 -43 43 -101 15 -160 -77 l-31 -49 0 -159 c0 -583
-71 -1597 -151 -2144 -129 -890 -312 -1516 -577 -1971 -33 -57 -66 -124 -72
-148 -6 -25 -23 -61 -36 -80 -41 -61 -27 -131 26 -131 39 0 65 27 74 76 4 22
16 53 27 70 11 19 19 50 19 77 0 36 14 73 73 189 193 378 326 784 436 1333 48
243 79 447 126 835 20 162 45 340 56 395 10 55 30 221 43 368 24 254 26 272
56 335 17 37 49 90 71 119 22 29 43 63 48 75 5 13 14 149 21 303 7 154 14 282
16 284 10 11 66 -31 140 -104 68 -67 89 -96 128 -176 25 -52 57 -138 70 -190
42 -165 57 -408 37 -600 -9 -86 -13 -95 -83 -222 -27 -49 -22 -86 27 -191 25
-53 50 -121 56 -150 6 -32 8 -242 7 -519 l-3 -465 -62 -120 c-35 -67 -63 -130
-63 -141 0 -12 19 -65 42 -119 l43 -97 6 -515 c7 -542 14 -755 30 -959 10
-120 9 -125 -17 -203 l-26 -79 21 -49 c24 -56 21 138 42 -2450 11 -1357 10
-1374 -45 -1631 -121 -570 -461 -1047 -958 -1344 -115 -69 -326 -173 -365
-181 -83 -16 -384 173 -620 388 -540 494 -906 1178 -930 1738 l-5 135 53 65
c113 140 237 352 296 510 13 35 27 68 29 72 3 4 30 -7 62 -24 104 -59 203 -36
268 62 24 37 30 40 71 40 79 0 134 45 164 132 16 48 21 54 54 60 89 19 135 80
135 181 l0 56 40 11 c89 24 123 85 100 182 -10 39 -10 53 -1 56 41 14 109 72
129 112 21 40 23 54 18 121 -6 72 -5 76 20 100 35 32 64 95 64 142 0 21 -9 60
-21 86 l-20 48 31 45 c43 61 49 113 20 174 -20 41 -21 50 -10 68 54 85 59 155
17 230 l-27 49 26 38 c53 77 42 161 -32 229 l-45 42 15 39 c40 99 6 175 -114
259 -20 14 -21 16 -5 48 56 110 4 193 -138 222 -34 7 -66 16 -70 20 -4 4 -3
20 3 36 16 42 138 469 214 749 269 998 521 2008 566 2265 130 756 173 976 211
1073 13 33 19 73 19 130 0 156 42 441 85 582 8 28 38 221 66 430 38 288 55
387 69 410 29 47 69 81 145 122 59 32 74 45 94 86 23 48 24 57 28 345 3 164 6
303 8 310 6 17 13 16 67 -19z m345 -5711 c-3 -7 -5 -2 -5 12 0 14 2 19 5 13 2
-7 2 -19 0 -25z m0 -200 c-2 -13 -4 -5 -4 17 -1 22 1 32 4 23 2 -10 2 -28 0
-40z m-10 -595 c-2 -21 -4 -6 -4 32 0 39 2 55 4 38 2 -18 2 -50 0 -70z m0
-205 c-2 -24 -4 -5 -4 42 0 47 2 66 4 43 2 -24 2 -62 0 -85z m1907 89 c42 -23
58 -47 32 -47 -21 0 -46 -39 -46 -72 0 -33 -8 -34 -60 -8 -76 39 -82 117 -10
143 28 10 45 7 84 -16z m-3691 -49 c17 -23 18 -31 8 -56 -12 -29 -75 -72 -105
-72 -11 0 -16 9 -16 28 0 32 -25 72 -46 72 -24 0 -16 17 19 39 46 31 113 25
140 -11z m3812 -282 l25 -118 -29 -93 c-61 -189 -75 -281 -75 -500 -1 -174 2
-214 22 -303 67 -298 196 -544 433 -822 41 -49 49 -66 69 -153 12 -53 20 -102
18 -107 -6 -20 -165 94 -245 175 -196 201 -348 514 -418 860 -75 369 -44 759
81 1025 41 88 84 163 90 158 2 -2 15 -57 29 -122z m-3977 2 c109 -226 155
-499 132 -793 -44 -572 -312 -1089 -672 -1299 -26 -15 -52 -26 -57 -24 -5 1 2
47 16 102 l25 98 95 112 c226 264 357 518 420 816 14 66 18 129 17 285 0 183
-3 210 -28 320 -16 66 -36 146 -46 177 -17 55 -17 60 2 140 32 137 39 159 47
153 5 -2 27 -42 49 -87z m3758 59 c3 -3 -4 -20 -16 -37 -13 -18 -22 -48 -24
-73 -1 -40 -2 -42 -31 -39 -59 6 -104 58 -89 104 13 42 46 60 101 56 29 -3 56
-7 59 -11z m-3487 -48 c49 -45 12 -124 -63 -136 l-36 -6 0 40 c0 26 -9 53 -24
76 l-24 35 36 9 c49 12 86 5 111 -18z m3399 -243 c3 -4 -2 -20 -11 -35 -19
-33 -22 -92 -6 -123 15 -28 7 -31 -42 -18 -54 15 -99 59 -99 97 0 34 24 71 54
84 22 9 93 6 104 -5z m-3327 -55 c31 -31 36 -55 18 -94 -22 -48 -153 -96 -134
-49 18 45 17 92 -3 126 -24 40 -19 44 46 45 35 1 49 -5 73 -28z m1596 -113
c-2 -13 -4 -3 -4 22 0 25 2 35 4 23 2 -13 2 -33 0 -45z m2150 -160 c12 -51 44
-187 72 -303 27 -115 75 -316 106 -445 30 -129 54 -239 52 -244 -2 -6 -22 14
-45 43 -126 159 -199 373 -222 646 -10 126 -4 395 9 395 4 0 17 -42 28 -92z
m-4267 -257 c-17 -245 -65 -428 -155 -585 -43 -76 -123 -185 -137 -186 -4 0
-1 21 7 48 7 26 45 171 85 322 77 299 165 631 183 695 11 39 11 37 19 -55 4
-52 3 -160 -2 -239z m3828 284 c2 -2 -5 -14 -17 -26 -27 -29 -27 -59 1 -94
l22 -28 -40 7 c-64 12 -99 37 -102 75 -4 39 10 58 52 70 28 7 75 5 84 -4z
m-1711 -72 c-2 -16 -4 -3 -4 27 0 30 2 43 4 28 2 -16 2 -40 0 -55z m-1598 23
c58 -52 6 -126 -89 -126 l-30 0 20 20 c25 25 26 60 0 92 -10 14 -16 29 -12 33
12 12 92 -2 111 -19z m3315 -234 c-9 -27 -10 -50 -4 -78 13 -53 13 -54 -7 -54
-35 1 -103 39 -115 65 -22 49 34 104 108 105 l32 0 -14 -38z m-3345 -29 c60
-45 27 -115 -63 -132 -46 -8 -47 -8 -40 13 10 29 11 106 1 132 -7 20 -5 21 34
14 23 -4 53 -17 68 -27z m3373 -259 c-4 -37 0 -51 18 -76 29 -40 15 -50 -64
-45 -50 3 -63 8 -83 32 -25 29 -25 63 0 94 17 20 67 40 103 41 32 0 32 0 26
-46z m-1755 -262 c-1 -53 -3 -7 -3 103 0 110 2 154 3 97 2 -57 2 -147 0 -200z
m-1667 256 c111 -56 59 -172 -69 -154 -24 3 -47 8 -49 11 -3 3 5 19 17 36 19
26 22 40 19 80 -5 45 -3 49 16 49 12 0 42 -10 66 -22z m3491 -238 c-3 -44 18
-91 51 -114 28 -20 17 -32 -40 -44 -83 -19 -152 20 -152 86 0 45 14 68 53 88
37 20 80 33 87 27 2 -2 3 -21 1 -43z m-3583 -9 c53 -27 76 -56 76 -96 0 -65
-67 -106 -147 -91 -19 3 -42 12 -52 20 -18 13 -18 15 12 40 36 31 57 82 47
120 -8 32 10 34 64 7z m1759 -203 c-2 -18 -4 -4 -4 32 0 36 2 50 4 33 2 -18 2
-48 0 -65z m3 -266 c-1 -137 -5 -234 -11 -242 -8 -11 -9 11 -5 70 3 47 6 156
6 243 0 86 2 157 5 157 3 0 5 -103 5 -228z m1930 203 c0 -13 14 -40 32 -60 36
-42 30 -56 -35 -74 -74 -19 -124 25 -93 83 15 29 71 76 88 76 5 0 8 -11 8 -25z
m-3788 -64 c27 -35 21 -81 -13 -100 -22 -12 -34 -13 -66 -3 -21 6 -47 17 -57
25 -17 13 -17 15 13 45 17 17 34 44 37 61 l6 31 30 -18 c17 -9 39 -28 50 -41z
m3908 -162 c0 -33 18 -58 57 -77 l36 -19 -36 -22 c-128 -79 -202 11 -99 121
27 30 42 28 42 -3z m-4040 -79 c18 -44 9 -83 -21 -94 -32 -11 -62 -4 -113 27
l-38 24 38 20 c29 15 43 30 54 61 l14 42 27 -26 c15 -15 33 -39 39 -54z m4225
-133 c11 -17 37 -41 58 -52 l37 -21 -22 -21 c-100 -90 -191 -27 -126 88 12 22
24 39 27 39 3 -1 15 -15 26 -33z m-4428 -56 c18 -42 10 -76 -22 -97 -22 -14
-27 -14 -67 4 -55 24 -78 50 -57 63 8 5 19 9 25 9 15 0 74 66 74 83 1 17 29
-21 47 -62z m2180 7 c-3 -8 -6 -5 -6 6 -1 11 2 17 5 13 3 -3 4 -12 1 -19z
m2447 -103 c9 -13 34 -35 56 -47 22 -13 40 -28 40 -35 0 -17 -64 -53 -95 -53
-60 0 -85 68 -48 131 21 35 26 36 47 4z m-4849 -25 c33 -63 10 -130 -45 -130
-27 0 -91 36 -97 55 -1 6 15 20 37 33 21 12 47 33 57 47 23 32 29 31 48 -5z
m-864 -750 c130 -67 188 -358 91 -455 -30 -30 -66 -32 -108 -6 l-32 19 -48
-50 c-111 -114 -184 -93 -184 54 0 118 57 272 150 401 47 65 65 70 131 37z
m6634 -27 c90 -124 162 -324 153 -430 -5 -62 -33 -107 -69 -111 -30 -4 -97 40
-136 89 l-29 36 -34 -18 c-49 -27 -78 -24 -110 11 -35 37 -45 92 -37 196 9
117 63 215 140 253 64 32 82 28 122 -26z m-7129 -342 c141 -64 136 -261 -10
-346 -137 -80 -296 -3 -296 145 0 84 49 156 135 196 60 29 116 30 171 5z
m7630 -6 c99 -29 166 -117 166 -216 -1 -98 -78 -169 -182 -169 -93 0 -172 53
-210 142 -46 108 4 214 118 248 40 12 53 11 108 -5z m-718 -155 c24 -13 63
-25 88 -28 33 -3 49 -11 61 -29 23 -35 91 -70 151 -78 61 -8 61 1 1 -140 -39
-90 -74 -135 -108 -135 -27 0 -68 36 -97 86 -25 43 -27 44 -77 44 -64 0 -94
15 -125 60 -22 32 -24 42 -19 125 3 50 11 107 17 129 l12 38 26 -25 c15 -14
46 -35 70 -47z m-6219 -9 c15 -95 14 -153 -4 -199 -21 -51 -59 -72 -132 -72
-57 0 -59 -1 -78 -36 -23 -43 -79 -94 -103 -94 -20 0 -62 41 -82 79 -10 20
-70 189 -70 198 0 2 17 3 38 3 62 0 108 18 150 60 24 24 49 40 63 40 44 0 97
20 146 55 26 18 51 34 54 34 3 1 11 -30 18 -68z m-526 -188 c8 -40 1 -41 -35
-6 l-28 27 22 23 c25 27 28 23 41 -44z m7207 10 c0 -5 -13 -19 -30 -31 -16
-13 -30 -20 -30 -18 0 3 5 28 11 56 l11 50 19 -24 c10 -13 19 -28 19 -33z
m-7870 -130 c27 -71 37 -177 21 -226 -15 -45 -63 -111 -96 -133 -24 -16 -27
-16 -46 2 -53 48 -64 135 -29 225 24 60 105 189 119 189 5 0 19 -26 31 -57z
m193 -18 c-15 -19 -28 -33 -29 -32 -1 1 -4 26 -8 54 l-7 53 35 -21 36 -21 -27
-33z m7160 -36 c23 -10 49 -19 57 -19 8 0 27 -18 41 -39 29 -41 99 -81 142
-81 15 0 27 -1 27 -3 0 -2 -15 -43 -34 -91 -74 -187 -140 -220 -207 -101 -29
51 -34 55 -67 55 -50 0 -100 33 -119 78 -19 45 -13 167 12 250 l16 53 45 -41
c25 -23 64 -50 87 -61z m-6083 44 c19 -75 24 -195 11 -236 -17 -50 -62 -85
-119 -93 -42 -5 -50 -11 -74 -49 -32 -53 -69 -79 -98 -70 -28 9 -73 81 -110
177 -17 42 -30 80 -30 83 0 3 12 5 28 5 45 1 107 35 142 79 18 23 41 41 50 41
27 0 114 48 145 80 16 16 32 30 36 30 4 0 12 -21 19 -47z m7285 -22 c103 -159
113 -273 31 -350 l-26 -24 -38 40 c-92 97 -106 212 -42 356 12 26 23 47 26 47
2 0 24 -31 49 -69z m-8001 45 c185 -56 218 -272 62 -412 -117 -106 -298 -94
-380 25 -42 60 -47 150 -14 222 40 85 98 135 193 165 53 17 83 17 139 0z
m7766 -26 c-4 -23 -9 -43 -12 -45 -2 -3 -15 9 -27 26 -13 17 -21 31 -19 32 1
1 12 7 23 14 36 21 43 16 35 -27z m-224 1 c137 -62 207 -217 154 -339 -38 -87
-109 -132 -209 -132 -138 2 -254 93 -281 225 -20 99 26 201 111 243 58 29 166
30 225 3z m-8384 -189 c90 -94 105 -138 68 -198 -28 -44 -52 -50 -96 -23 -49
30 -74 74 -74 130 0 49 26 149 39 149 4 0 33 -26 63 -58z m9140 -59 c11 -66
10 -77 -8 -119 -15 -37 -29 -52 -67 -73 l-48 -26 -30 35 c-39 46 -39 93 -1
146 38 52 123 127 133 117 5 -5 14 -41 21 -80z m-9346 -25 c-3 -13 -6 -60 -6
-105 0 -97 -10 -104 -60 -46 -28 31 -31 42 -27 76 6 44 49 97 80 97 15 0 18
-5 13 -22z m7613 -42 c34 -69 73 -103 133 -113 25 -4 39 -15 60 -49 30 -48 71
-78 133 -96 22 -6 41 -12 43 -13 1 -1 -8 -32 -21 -67 -62 -170 -157 -259 -211
-199 -23 25 -46 103 -46 155 0 23 -4 46 -8 52 -4 6 -32 13 -63 16 -155 12
-199 174 -89 333 17 25 32 45 34 45 2 0 18 -29 35 -64z m-5692 -7 c96 -160 47
-303 -111 -318 l-61 -6 -7 -60 c-13 -105 -51 -175 -95 -175 -21 0 -80 58 -108
106 -25 42 -75 165 -75 183 0 5 18 12 40 16 51 9 111 49 148 101 23 31 39 42
66 47 20 3 50 15 66 27 33 23 80 97 80 124 0 30 23 12 57 -45z m7572 26 c36
-18 64 -76 56 -115 -7 -32 -70 -94 -86 -85 -9 6 -13 215 -4 215 4 0 19 -7 34
-15z m-8892 -150 c7 -81 -12 -137 -68 -195 -44 -46 -63 -47 -91 -9 -48 64 -26
162 64 284 l52 70 18 -42 c10 -24 21 -72 25 -108z m8340 68 c103 -148 118
-247 48 -313 l-23 -22 -45 45 c-62 61 -84 130 -69 213 9 53 37 134 46 134 2 0
21 -26 43 -57z m-9149 -68 c-11 -123 -5 -435 12 -565 65 -499 273 -1021 576
-1446 281 -394 696 -767 1059 -952 33 -17 69 -37 80 -46 19 -14 18 -16 -29
-36 -92 -41 -205 -19 -319 63 l-49 35 -54 -19 c-162 -57 -290 17 -361 211
l-21 55 -83 0 c-70 0 -90 4 -121 23 -56 35 -90 112 -97 220 l-6 87 -70 6 c-88
7 -135 27 -169 71 -29 38 -49 124 -41 175 3 18 7 49 10 68 5 32 4 35 -19 35
-14 0 -49 5 -78 11 -67 15 -121 65 -138 129 -12 44 -9 203 5 260 l6 25 -86 0
c-85 0 -87 1 -115 32 -53 59 -61 154 -26 306 12 52 12 57 -3 57 -9 0 -44 7
-76 15 -44 11 -69 25 -92 49 -63 67 -53 154 36 331 l58 114 -50 42 c-144 122
-140 247 10 345 l60 38 -19 59 c-43 139 -5 209 123 224 47 6 50 8 69 51 11 25
22 43 25 41 2 -3 -1 -54 -7 -114z m1505 58 l26 -51 -64 1 c-62 2 -77 8 -55 22
6 4 22 25 36 47 14 22 27 38 29 36 1 -1 14 -26 28 -55z m6953 -50 c-2 -2 -28
-3 -58 -1 l-54 3 23 53 24 52 35 -51 c19 -29 33 -54 30 -56z m1434 13 c9 -30
16 -34 53 -38 132 -15 175 -94 128 -231 l-20 -57 32 -21 c49 -34 107 -91 123
-121 24 -46 18 -109 -16 -160 -17 -26 -41 -53 -53 -62 -12 -8 -35 -26 -50 -39
l-28 -24 54 -111 c36 -71 59 -135 67 -180 12 -63 11 -72 -8 -115 -24 -55 -76
-86 -159 -94 l-55 -6 6 -31 c42 -207 26 -310 -55 -352 -25 -12 -49 -15 -100
-12 l-67 5 5 -116 c7 -142 -5 -191 -56 -242 -39 -39 -91 -59 -154 -59 l-38 0
6 -77 c16 -176 -50 -260 -211 -271 l-71 -4 -6 -72 c-11 -126 -52 -207 -123
-241 -30 -14 -52 -16 -111 -11 -73 6 -74 6 -84 -22 -44 -119 -125 -219 -196
-240 -57 -17 -119 -14 -183 8 l-55 19 -61 -40 c-84 -54 -142 -72 -217 -67 -59
4 -137 31 -137 48 0 4 24 18 53 30 131 56 369 207 533 338 590 469 1006 1129
1168 1854 48 215 60 333 61 605 0 138 3 249 7 247 3 -2 12 -19 18 -38z m-9403
-77 c92 -30 114 -158 29 -172 -43 -7 -95 7 -130 34 -23 18 -86 132 -86 156 0
11 140 -2 187 -18z m9068 -31 c-15 -49 -64 -124 -95 -145 -24 -17 -47 -23 -84
-23 -63 0 -75 8 -82 51 -12 86 64 135 214 138 51 1 53 0 47 -21z m-1878 -105
c19 -24 54 -56 78 -73 30 -21 47 -41 55 -67 20 -61 69 -131 116 -165 24 -17
44 -34 44 -37 0 -21 -71 -123 -114 -166 -85 -84 -161 -107 -204 -62 -27 28
-37 95 -24 159 l9 46 -57 21 c-39 14 -70 35 -94 61 -32 35 -36 46 -36 93 1 78
58 201 134 285 l20 23 19 -38 c11 -21 35 -57 54 -80z m-5362 28 c109 -169 121
-269 40 -340 -19 -17 -57 -38 -84 -48 l-50 -17 1 -84 c1 -69 -2 -88 -19 -110
-53 -71 -171 -18 -264 119 -65 96 -66 103 -15 138 47 32 106 114 125 171 7 24
22 42 46 55 43 23 104 87 136 143 13 23 27 42 32 42 4 0 28 -31 52 -69z m-838
35 c95 -45 146 -151 123 -259 -36 -176 -218 -282 -366 -213 -164 76 -167 328
-5 440 86 60 165 70 248 32z m-438 3 c17 -6 31 -12 31 -14 0 -1 -7 -20 -16
-41 l-16 -39 -19 50 c-25 65 -27 60 20 44z m7536 -13 c120 -57 197 -206 166
-322 -27 -102 -111 -167 -216 -168 -200 0 -341 238 -241 408 24 41 82 89 122
99 51 13 121 6 169 -17z m-8358 -4 c12 -7 77 -261 69 -270 -9 -8 -130 38 -169
65 -88 61 -90 161 -3 199 34 15 84 18 103 6z m8643 4 c0 -2 -10 -25 -21 -51
l-21 -48 -14 39 c-18 51 -18 52 9 57 33 6 47 7 47 3z m-7957 -101 c45 -147 19
-257 -78 -330 -42 -33 -57 -25 -88 44 -24 54 -17 110 23 185 37 72 111 169
120 159 4 -4 14 -30 23 -58z m8858 42 c85 -57 53 -156 -68 -210 -32 -14 -75
-29 -95 -32 l-37 -7 31 113 c44 166 40 159 91 159 29 0 55 -8 78 -23z m-725
-63 c105 -146 121 -270 46 -338 -20 -18 -22 -18 -50 2 -62 45 -102 127 -102
213 0 53 39 189 54 189 3 0 26 -30 52 -66z m-8510 -25 c64 -24 104 -66 114
-119 11 -61 3 -78 -37 -86 -83 -16 -171 45 -236 161 -20 37 -37 71 -37 75 0
11 142 -11 196 -31z m8977 -51 c-35 -65 -114 -152 -151 -167 -16 -7 -53 -11
-83 -9 l-54 3 -3 45 c-3 50 21 97 68 132 29 21 135 46 203 47 l48 1 -28 -52z
m-2149 -110 c15 -94 84 -188 138 -188 11 0 17 -15 22 -49 7 -56 64 -141 120
-181 20 -14 36 -31 36 -38 0 -22 -89 -110 -134 -132 -60 -28 -101 -26 -136 8
-27 28 -50 100 -50 162 0 22 -6 30 -30 38 -48 17 -117 69 -139 106 -27 43 -27
96 0 149 24 46 135 167 154 167 7 0 15 -19 19 -42z m-4689 -142 c51 -103 20
-175 -104 -240 -68 -36 -71 -38 -71 -74 0 -86 -38 -154 -95 -168 -40 -10 -107
21 -160 75 -76 77 -76 74 -2 141 66 61 94 106 104 164 4 26 13 36 46 52 57 27
94 77 113 157 l17 68 64 -63 c35 -35 75 -85 88 -112z m5548 5 c10 -7 17 -16
17 -20 0 -3 -41 -6 -90 -6 -50 0 -90 1 -90 3 0 2 13 20 30 40 16 20 36 54 45
76 l16 38 28 -58 c15 -33 35 -65 44 -73z m-6489 101 c4 -10 22 -45 41 -77 l35
-58 -46 7 c-26 3 -66 6 -90 6 l-44 0 35 46 c19 25 38 56 41 70 7 29 20 31 28
6z m-1386 -49 c48 -119 102 -277 97 -282 -12 -11 -141 -13 -180 -2 -54 14
-119 64 -139 105 -43 90 7 159 139 192 70 17 71 17 83 -13z m697 -52 c35 -117
7 -226 -72 -287 l-36 -27 -18 22 c-35 43 -43 92 -25 153 15 51 107 198 125
198 4 0 16 -27 26 -59z m-375 23 c48 -19 80 -61 87 -114 5 -37 5 -39 -33 -49
-47 -13 -96 -2 -142 33 -35 26 -122 132 -122 149 0 15 161 0 210 -19z m8233
-41 c78 -118 95 -187 61 -259 -26 -54 -36 -57 -77 -23 -66 54 -94 139 -77 230
9 47 35 119 43 119 2 0 25 -30 50 -67z m762 28 c22 -10 53 -33 69 -51 23 -28
27 -41 23 -72 -7 -50 -47 -103 -100 -129 -67 -35 -237 -39 -237 -6 0 15 100
268 112 283 10 14 71 2 133 -25z m-255 2 c0 -18 -93 -125 -129 -149 -73 -48
-171 -41 -171 12 0 37 27 90 56 109 13 8 41 19 61 24 47 11 183 14 183 4z
m-2345 -103 c-4 -6 1 -34 9 -64 18 -60 71 -120 142 -162 33 -20 43 -32 49 -61
11 -60 45 -121 87 -158 l40 -34 -58 -37 c-113 -73 -191 -90 -237 -54 -30 24
-39 60 -41 168 l-1 75 -51 12 c-66 15 -116 44 -132 78 -23 48 23 121 128 204
53 41 78 54 65 33z m-4182 -74 c54 -46 103 -111 112 -149 14 -54 -55 -111
-149 -123 l-44 -6 -4 -99 c-2 -80 -7 -103 -24 -126 -42 -56 -146 -37 -263 48
l-42 30 50 50 c37 36 55 63 66 101 8 28 15 57 15 63 0 6 16 19 36 28 47 23
129 100 148 142 9 18 16 49 16 70 0 41 -1 42 83 -29z m5342 -15 c118 -66 173
-223 117 -336 -50 -103 -179 -146 -288 -96 -136 62 -202 243 -132 363 28 46
73 82 126 99 43 13 123 0 177 -30z m-6382 15 c204 -89 147 -402 -84 -462 -180
-47 -323 143 -240 318 25 52 95 122 144 143 42 18 139 19 180 1z m-622 -63
c15 -40 22 -80 22 -128 1 -80 -13 -113 -73 -176 -38 -41 -41 -42 -59 -25 -58
52 -66 140 -21 234 33 71 87 152 100 152 5 0 19 -26 31 -57z m196 42 c6 -4
-22 -105 -29 -105 -5 0 -8 4 -8 9 0 4 -18 29 -40 54 -22 25 -40 47 -40 50 0 5
111 -3 117 -8z m7120 -34 c-19 -22 -40 -49 -47 -60 -15 -29 -26 -20 -33 26 -3
21 -8 46 -12 56 -6 15 0 17 60 17 l67 0 -35 -39z m174 -4 c100 -160 114 -271
44 -337 l-25 -24 -36 35 c-67 64 -93 147 -74 234 13 58 45 135 57 135 4 0 20
-19 34 -43z m-7886 -23 c44 -20 71 -58 84 -113 9 -42 9 -43 -25 -57 -81 -34
-153 -5 -249 98 -36 39 -65 74 -65 79 0 24 200 19 255 -7z m8473 -13 c-11 -33
-124 -142 -170 -165 -57 -28 -83 -31 -140 -15 -33 9 -38 14 -38 40 0 53 45
116 100 138 32 13 253 14 248 2z m-2516 -89 c22 -61 75 -122 132 -153 33 -17
46 -30 46 -45 0 -48 41 -151 76 -192 l35 -42 -28 -11 c-15 -6 -51 -16 -80 -22
-99 -21 -153 31 -153 146 l0 54 -67 17 c-110 27 -138 74 -97 161 17 36 100
135 113 135 3 0 14 -21 23 -48z m-3581 -101 c28 -43 36 -90 23 -126 -9 -22
-71 -52 -127 -60 -46 -7 -47 -8 -47 -42 0 -101 -48 -173 -116 -173 -31 0 -139
32 -152 45 -3 3 4 12 16 21 34 23 80 112 93 175 10 49 15 58 45 72 71 34 127
101 159 192 6 18 10 17 42 -20 20 -22 49 -60 64 -84z m-2624 -29 l63 -133 -65
-31 c-187 -87 -344 -12 -281 135 25 58 167 171 205 165 8 -2 43 -63 78 -136z
m8834 87 c88 -44 168 -143 169 -207 0 -73 -72 -119 -172 -108 -70 7 -191 58
-186 78 9 33 129 258 138 258 6 0 29 -9 51 -21z m-1609 -70 c15 -38 28 -74 28
-79 0 -5 -19 -3 -42 5 -24 8 -62 19 -86 25 l-42 11 28 24 c16 13 40 40 53 59
13 19 25 33 28 30 2 -2 17 -36 33 -75z m-5644 -11 c20 -21 34 -39 31 -41 -6
-4 -169 -44 -169 -41 0 1 13 30 29 65 16 35 32 73 35 83 6 18 8 18 23 -5 9
-13 32 -41 51 -61z m-781 -25 c48 -104 32 -214 -41 -282 -30 -28 -49 -23 -76
21 -25 42 -26 103 -1 168 18 48 78 150 88 150 2 0 16 -26 30 -57z m5161 -64
c15 -37 69 -97 103 -115 20 -10 29 -22 29 -40 0 -34 22 -83 54 -121 l28 -33
-25 0 c-48 0 -176 29 -214 48 -110 57 -125 164 -43 322 l34 65 12 -50 c6 -27
16 -62 22 -76z m2005 74 c68 -111 87 -212 51 -273 -41 -71 -72 -62 -120 37
-23 45 -26 63 -21 111 5 59 42 162 58 162 5 0 19 -17 32 -37z m-5122 -136 c34
-108 16 -172 -61 -224 -44 -31 -90 -43 -185 -50 l-80 -6 31 34 c30 35 47 70
58 119 3 15 20 33 45 47 50 29 97 100 112 171 l11 56 24 -40 c14 -21 34 -70
45 -107z m-2444 86 c38 -18 63 -52 70 -99 5 -32 3 -35 -30 -49 -49 -20 -83
-19 -134 6 -39 19 -153 131 -153 150 0 10 100 17 165 12 27 -2 64 -11 82 -20z
m8140 -12 c13 -7 -59 -90 -111 -129 -44 -33 -98 -45 -143 -32 -62 17 -66 22
-54 67 13 47 57 92 103 103 34 9 184 2 205 -9z m-1358 -112 c204 -102 183
-365 -33 -420 -92 -23 -203 15 -268 91 -82 95 -75 234 16 306 48 39 89 52 162
53 49 1 73 -5 123 -30z m-5421 -11 c64 -33 104 -92 110 -162 6 -71 -11 -119
-61 -174 -54 -57 -107 -84 -184 -90 -189 -15 -309 152 -228 315 63 126 234
178 363 111z m-744 -112 c29 -86 16 -166 -38 -230 -36 -43 -55 -42 -86 9 -38
62 -21 168 45 281 l27 46 18 -30 c10 -17 26 -51 34 -76z m6762 19 c60 -126 56
-236 -12 -280 -23 -15 -25 -14 -53 26 -40 55 -54 101 -49 164 5 53 51 165 69
165 6 0 26 -34 45 -75z m-7573 -79 c37 -63 67 -119 67 -125 0 -20 -107 -102
-153 -117 -59 -20 -128 -14 -166 13 -14 10 -36 40 -49 65 -19 38 -21 52 -14
86 15 66 63 116 154 162 44 22 83 38 88 35 4 -2 37 -56 73 -119z m7337 95 c-1
-8 -71 -84 -74 -79 -2 2 -6 23 -9 48 l-6 45 45 -3 c24 -2 44 -7 44 -11z
m-6972 -11 c40 -24 80 -104 63 -124 -18 -21 -90 -38 -132 -31 -41 7 -131 68
-183 123 l-29 31 24 5 c13 3 33 7 44 9 11 3 56 5 100 6 64 1 87 -3 113 -19z
m666 -22 c-6 -40 -24 -77 -24 -50 0 6 -13 27 -30 45 -16 19 -27 37 -23 41 3 3
24 6 45 6 l38 0 -6 -42z m7085 21 c36 -6 70 -15 74 -19 11 -10 -91 -98 -146
-127 -48 -26 -103 -29 -151 -9 -47 20 -50 30 -26 82 38 78 105 97 249 73z
m314 -13 c138 -61 203 -182 147 -274 -42 -68 -139 -92 -225 -56 -40 16 -135
100 -135 118 0 19 135 235 147 236 7 0 37 -11 66 -24z m-1911 -81 c-3 -33 -8
-55 -15 -55 -7 1 -31 11 -55 24 l-44 22 49 31 c26 17 53 32 58 32 6 1 9 -21 7
-54z m-4693 1 l54 -34 -48 -21 c-26 -11 -51 -21 -55 -21 -5 0 -10 25 -12 55
-1 30 -1 55 2 55 3 0 29 -16 59 -34z m-794 -183 c32 -66 34 -148 4 -209 -29
-61 -43 -70 -75 -49 -29 19 -63 87 -64 125 0 35 24 125 50 185 l21 50 19 -25
c11 -14 31 -48 45 -77z m6319 5 c42 -125 30 -212 -36 -260 l-31 -21 -18 24
c-70 90 -63 209 18 317 14 19 29 30 33 25 5 -4 20 -43 34 -85z m-949 48 c151
-71 200 -241 103 -352 -49 -56 -101 -78 -183 -77 -82 0 -128 18 -186 70 -123
111 -109 283 30 355 71 37 163 39 236 4z m-5858 -12 c31 -23 73 -89 73 -115 0
-21 -68 -49 -118 -49 -20 0 -55 9 -77 19 -40 18 -165 125 -165 141 0 14 101
29 182 27 60 -2 83 -7 105 -23z m1524 0 c91 -27 159 -117 159 -210 0 -44 -42
-125 -84 -161 -53 -47 -92 -65 -157 -70 -76 -7 -117 2 -170 37 -96 63 -124
188 -64 285 36 59 96 103 162 121 65 17 90 17 154 -2z m5878 5 c36 -6 70 -15
74 -19 12 -11 -102 -110 -158 -136 -61 -29 -106 -30 -163 -4 -49 22 -50 34 -5
103 41 65 110 80 252 56z m-2011 -78 l-21 -42 -17 29 c-10 17 -24 34 -32 38
-8 6 4 11 37 14 28 3 51 5 52 5 1 -1 -7 -20 -19 -44z m-5703 -101 c50 -84 66
-116 61 -134 -9 -35 -89 -114 -139 -136 -83 -38 -181 -20 -212 40 -32 61 -7
136 72 221 44 48 130 118 144 119 4 0 37 -50 74 -110z m2156 100 l29 0 -28
-39 -27 -39 -10 28 c-5 16 -13 32 -17 36 -14 13 -8 26 8 20 9 -3 29 -6 45 -6z
m5792 -48 c92 -73 166 -182 167 -245 0 -67 -58 -117 -137 -117 -65 1 -119 27
-174 87 -77 82 -77 74 4 201 40 61 77 112 82 112 6 0 31 -17 58 -38z m-1067
-124 c17 -79 17 -139 2 -190 -12 -40 -67 -98 -94 -98 -23 0 -54 78 -54 135 0
28 9 69 19 92 20 42 100 138 109 129 2 -3 10 -33 18 -68z m-5882 17 c56 -68
79 -128 73 -189 -5 -54 -34 -126 -50 -126 -23 0 -67 37 -87 73 -20 35 -22 49
-17 126 6 84 23 161 37 161 4 0 24 -20 44 -45z m5518 7 c54 -14 57 -16 43 -34
-15 -22 -125 -108 -138 -108 -4 0 -4 24 -1 53 4 28 8 67 8 85 0 26 3 31 16 26
8 -4 41 -14 72 -22z m-5132 -46 c0 -29 3 -68 7 -86 l6 -33 -42 24 c-24 13 -61
44 -84 69 l-42 45 45 6 c25 4 56 12 70 17 39 16 40 15 40 -42z m-830 29 c16
-8 41 -31 56 -50 26 -34 26 -36 9 -56 -73 -80 -172 -81 -325 -4 l-53 27 44 25
c118 69 209 89 269 58z m6920 -41 c49 -25 88 -50 85 -54 -9 -15 -149 -68 -198
-75 -59 -9 -121 12 -162 55 l-28 29 26 34 c62 81 136 84 277 11z m-846 -153
c27 -120 16 -185 -39 -227 -39 -30 -51 -26 -72 24 -21 50 -18 123 6 170 23 44
68 102 81 102 5 0 16 -31 24 -69z m-5356 -30 c18 -32 26 -59 27 -96 0 -56 -30
-135 -51 -135 -8 0 -28 13 -46 29 -33 29 -33 30 -33 118 0 48 6 108 13 132
l13 43 26 -23 c14 -13 37 -44 51 -68z m-978 -59 c55 -62 100 -117 100 -121 0
-4 -22 -39 -49 -77 -106 -152 -225 -175 -282 -56 -29 59 -23 159 14 234 28 58
94 141 108 136 4 -2 53 -54 109 -116z m7423 -21 c35 -73 47 -166 27 -225 -14
-44 -72 -96 -107 -96 -67 0 -160 79 -217 184 l-19 35 108 116 108 116 34 -33
c19 -18 48 -62 66 -97z m-6891 33 c16 -8 40 -33 55 -56 l27 -41 -38 -33 c-49
-43 -110 -56 -179 -40 -56 14 -197 81 -197 95 0 10 131 71 190 88 49 14 99 9
142 -13z m5553 -36 c33 -119 19 -205 -41 -245 -25 -16 -27 -16 -44 7 -21 27
-40 87 -40 121 1 45 75 179 99 179 5 0 16 -28 26 -62z m840 8 c52 -24 95 -48
95 -51 0 -3 -38 -24 -85 -46 -136 -64 -221 -65 -293 -3 -40 34 -41 36 -28 62
54 104 148 115 311 38z m-5732 -8 c65 -95 71 -186 18 -257 -15 -20 -21 -22
-39 -12 -55 29 -76 104 -56 199 12 60 32 122 39 122 1 0 19 -24 38 -52z m5383
-167 c33 -15 80 -41 104 -56 l43 -27 -24 -14 c-50 -28 -155 -57 -204 -57 -58
0 -118 28 -147 68 -17 23 -17 25 9 56 55 65 125 75 219 30z m-5790 9 c15 -6
43 -27 61 -47 l34 -36 -28 -29 c-47 -50 -78 -61 -157 -56 -51 4 -90 14 -141
37 -80 37 -80 37 30 93 95 49 146 58 201 38z m-495 -87 l91 -78 -5 -69 c-11
-129 -83 -226 -167 -226 -118 0 -164 143 -98 305 24 60 73 145 84 145 2 0 46
-35 95 -77z m6757 25 c105 -185 93 -365 -27 -398 -27 -7 -43 -5 -77 9 -68 30
-102 96 -119 228 -6 48 -5 53 22 76 29 26 167 137 170 137 1 0 15 -24 31 -52z
m-808 -94 c14 -10 44 -35 68 -58 51 -48 44 -54 -61 -55 -79 -1 -120 16 -142
59 -19 38 -20 37 13 54 36 20 92 20 122 0z m-5146 -24 c19 -19 20 -22 6 -48
-26 -46 -74 -64 -154 -57 -38 3 -73 8 -78 11 -13 8 58 81 102 105 42 23 95 19
124 -11z m5642 -85 c3 -25 3 -80 -1 -122 -17 -186 -82 -261 -156 -182 -34 37
-69 142 -69 208 l0 47 103 46 c56 26 105 47 109 47 4 1 10 -19 14 -44z m-6144
-10 c51 -25 96 -49 100 -53 10 -10 -17 -153 -37 -193 -52 -102 -124 -112 -161
-23 -34 80 -40 314 -8 314 7 0 54 -20 106 -45z"/>
</g>
</svg>
